HIERARCHY
ROOT Hips
{
  OFFSET 1.73907 43.2358 0.0522707
  CHANNELS 6 Xposition Yposition Zposition Zrotation Xrotation Yrotation
  JOINT Bip01_Pelvis
  {
    OFFSET 0 0 0
    CHANNELS 6 Xposition Yposition Zposition Zrotation Xrotation Yrotation
    JOINT BN_Tail_01
    {
      OFFSET -2.28979 -2.39917 0
      CHANNELS 6 Xposition Yposition Zposition Zrotation Xrotation Yrotation
      JOINT BN_Tail_02
      {
        OFFSET 9.67405 0 0
        CHANNELS 6 Xposition Yposition Zposition Zrotation Xrotation Yrotation
        JOINT BN_Tail_03
        {
          OFFSET 10.5192 0 -1.14441e-005
          CHANNELS 6 Xposition Yposition Zposition Zrotation Xrotation Yrotation
          JOINT BN_Tail_04
          {
            OFFSET 8.16754 0 0
            CHANNELS 6 Xposition Yposition Zposition Zrotation Xrotation Yrotation
            End Site
            {
              OFFSET 0 0 0
            }
          }
        }
      }
    }
    JOINT Bip01_Spine
    {
      OFFSET 2.25317 -0.00479889 0
      CHANNELS 6 Xposition Yposition Zposition Zrotation Xrotation Yrotation
      JOINT Bip01_R_Thigh
      {
        OFFSET -2.32652 -0.461891 -2.25534
        CHANNELS 6 Xposition Yposition Zposition Zrotation Xrotation Yrotation
        JOINT Bip01_R_Calf
        {
          OFFSET 9.47902 0 0
          CHANNELS 6 Xposition Yposition Zposition Zrotation Xrotation Yrotation
          JOINT Bip01_R_Foot
          {
            OFFSET 8.42616 0 0
            CHANNELS 6 Xposition Yposition Zposition Zrotation Xrotation Yrotation
            JOINT Bip01_R_Toe1
            {
              OFFSET 1.4015 3.97627 -1.33795
              CHANNELS 6 Xposition Yposition Zposition Zrotation Xrotation Yrotation
              JOINT Bip01_R_Toe11
              {
                OFFSET 2.94553 0 0
                CHANNELS 6 Xposition Yposition Zposition Zrotation Xrotation Yrotation
                JOINT Bip01_R_Toe1Nub
                {
                  OFFSET 2.52656 0 0
                  CHANNELS 6 Xposition Yposition Zposition Zrotation Xrotation Yrotation
                  End Site
                  {
                    OFFSET 0 0 0
                  }
                }
              }
            }
            JOINT Bip01_R_Toe0
            {
              OFFSET 2.09729 6.93129 0.0277901
              CHANNELS 6 Xposition Yposition Zposition Zrotation Xrotation Yrotation
              JOINT Bip01_R_Toe01
              {
                OFFSET 3.0714 0 0
                CHANNELS 6 Xposition Yposition Zposition Zrotation Xrotation Yrotation
                JOINT Bip01_R_Toe0Nub
                {
                  OFFSET 3.37999 0 0
                  CHANNELS 6 Xposition Yposition Zposition Zrotation Xrotation Yrotation
                  End Site
                  {
                    OFFSET 0 0 0
                  }
                }
              }
            }
          }
        }
      }
      JOINT Bip01_L_Thigh
      {
        OFFSET -2.07803 -0.462101 2.48614
        CHANNELS 6 Xposition Yposition Zposition Zrotation Xrotation Yrotation
        JOINT Bip01_L_Calf
        {
          OFFSET 9.47902 0 0
          CHANNELS 6 Xposition Yposition Zposition Zrotation Xrotation Yrotation
          JOINT Bip01_L_Foot
          {
            OFFSET 8.42617 0 0
            CHANNELS 6 Xposition Yposition Zposition Zrotation Xrotation Yrotation
            JOINT Bip01_L_Toe1
            {
              OFFSET 1.40151 3.97627 1.33796
              CHANNELS 6 Xposition Yposition Zposition Zrotation Xrotation Yrotation
              JOINT Bip01_L_Toe11
              {
                OFFSET 2.94554 0 0
                CHANNELS 6 Xposition Yposition Zposition Zrotation Xrotation Yrotation
                JOINT Bip01_L_Toe1Nub
                {
                  OFFSET 2.52656 0 0
                  CHANNELS 6 Xposition Yposition Zposition Zrotation Xrotation Yrotation
                  End Site
                  {
                    OFFSET 0 0 0
                  }
                }
              }
            }
            JOINT Bip01_L_Toe0
            {
              OFFSET 2.0973 6.93128 -0.0277834
              CHANNELS 6 Xposition Yposition Zposition Zrotation Xrotation Yrotation
              JOINT Bip01_L_Toe01
              {
                OFFSET 3.07141 0 0
                CHANNELS 6 Xposition Yposition Zposition Zrotation Xrotation Yrotation
                JOINT Bip01_L_Toe0Nub
                {
                  OFFSET 3.37999 0 0
                  CHANNELS 6 Xposition Yposition Zposition Zrotation Xrotation Yrotation
                  End Site
                  {
                    OFFSET 0 0 0
                  }
                }
              }
            }
          }
        }
      }
      JOINT Bip01_Spine1
      {
        OFFSET 6.17162 -0.00484467 0
        CHANNELS 6 Xposition Yposition Zposition Zrotation Xrotation Yrotation
        JOINT BN_R_Clavicle_01
        {
          OFFSET 6.15897 -2.02444 -2.78435
          CHANNELS 6 Xposition Yposition Zposition Zrotation Xrotation Yrotation
          JOINT BN_R_UpperArm_01
          {
            OFFSET 3.43915 0 0
            CHANNELS 6 Xposition Yposition Zposition Zrotation Xrotation Yrotation
            JOINT BN_R__Forearm_01
            {
              OFFSET 10.2529 0 0
              CHANNELS 6 Xposition Yposition Zposition Zrotation Xrotation Yrotation
              JOINT BN_R_Hand_01
              {
                OFFSET 16.2051 0 0
                CHANNELS 6 Xposition Yposition Zposition Zrotation Xrotation Yrotation
                JOINT BN_R_Finger_07
                {
                  OFFSET 2.2539 2.19923 0.192043
                  CHANNELS 6 Xposition Yposition Zposition Zrotation Xrotation Yrotation
                  End Site
                  {
                    OFFSET 0 0 0
                  }
                }
                JOINT BN_R_Finger_01
                {
                  OFFSET 2.17806 -1.99631 -0.219296
                  CHANNELS 6 Xposition Yposition Zposition Zrotation Xrotation Yrotation
                  End Site
                  {
                    OFFSET 0 0 0
                  }
                }
                JOINT BN_R_Finger_05
                {
                  OFFSET 3.30715 1.42802 0.17391
                  CHANNELS 6 Xposition Yposition Zposition Zrotation Xrotation Yrotation
                  End Site
                  {
                    OFFSET 0 0 0
                  }
                }
                JOINT BN_R_Finger_03
                {
                  OFFSET 3.93641 -0.769831 0.580946
                  CHANNELS 6 Xposition Yposition Zposition Zrotation Xrotation Yrotation
                  End Site
                  {
                    OFFSET 0 0 0
                  }
                }
              }
            }
          }
        }
        JOINT BN_L_Clavicle_01
        {
          OFFSET 6.15897 -2.02445 2.78458
          CHANNELS 6 Xposition Yposition Zposition Zrotation Xrotation Yrotation
          JOINT BN_L_UpperArm_01
          {
            OFFSET 3.43915 0 0
            CHANNELS 6 Xposition Yposition Zposition Zrotation Xrotation Yrotation
            JOINT BN_L__Forearm_01
            {
              OFFSET 10.2529 0 0
              CHANNELS 6 Xposition Yposition Zposition Zrotation Xrotation Yrotation
              JOINT BN_L_Hand_01
              {
                OFFSET 16.2051 0 0
                CHANNELS 6 Xposition Yposition Zposition Zrotation Xrotation Yrotation
                JOINT BN_L_Finger_05
                {
                  OFFSET 3.30715 -1.42803 0.173891
                  CHANNELS 6 Xposition Yposition Zposition Zrotation Xrotation Yrotation
                  End Site
                  {
                    OFFSET 0 0 0
                  }
                }
                JOINT BN_L_Finger_07
                {
                  OFFSET 2.2539 -2.19925 0.19203
                  CHANNELS 6 Xposition Yposition Zposition Zrotation Xrotation Yrotation
                  End Site
                  {
                    OFFSET 0 0 0
                  }
                }
                JOINT BN_L_Finger_01
                {
                  OFFSET 2.17804 1.99629 -0.219303
                  CHANNELS 6 Xposition Yposition Zposition Zrotation Xrotation Yrotation
                  End Site
                  {
                    OFFSET 0 0 0
                  }
                }
                JOINT BN_L_Finger_03
                {
                  OFFSET 3.9364 0.769825 0.580943
                  CHANNELS 6 Xposition Yposition Zposition Zrotation Xrotation Yrotation
                  End Site
                  {
                    OFFSET 0 0 0
                  }
                }
              }
            }
          }
        }
        JOINT Bip01_Neck
        {
          OFFSET 7.02381 -0.81237 0
          CHANNELS 6 Xposition Yposition Zposition Zrotation Xrotation Yrotation
          JOINT Bip01_Head
          {
            OFFSET 1.54249 1.14441e-005 0
            CHANNELS 6 Xposition Yposition Zposition Zrotation Xrotation Yrotation
            JOINT BN_Mouth_01
            {
              OFFSET 2.32836 0.166542 0
              CHANNELS 6 Xposition Yposition Zposition Zrotation Xrotation Yrotation
              End Site
              {
                OFFSET 0 0 0
              }
            }
            JOINT BN_R_Ear_01
            {
              OFFSET 3.4208 -0.773972 -2.25959
              CHANNELS 6 Xposition Yposition Zposition Zrotation Xrotation Yrotation
              End Site
              {
                OFFSET 0 0 0
              }
            }
            JOINT BN_L_Ear_01
            {
              OFFSET 3.4208 -0.773976 2.25975
              CHANNELS 6 Xposition Yposition Zposition Zrotation Xrotation Yrotation
              End Site
              {
                OFFSET 0 0 0
              }
            }
            JOINT Bip01_HeadNub
            {
              OFFSET 6.74789 0 0
              CHANNELS 6 Xposition Yposition Zposition Zrotation Xrotation Yrotation
              End Site
              {
                OFFSET 0 0 0
              }
            }
          }
        }
      }
    }
  }
}
MOTION
Frames:	4
Frame Time:	0.0333333
0.898649 56.0857 0.268099 -8.80024 -84.9256 14.0952 -3.55271e-015 0 -3.8147e-006 -89.9965 -3.50835e-015 -90 -2.28978 -2.39918 0 172.168 80.2762 64.3855 9.67406 -8.88178e-016 3.8147e-006 4.52127 -0.231001 -7.79467 10.5192 0 -3.8147e-006 22.2929 -1.66358 -19.18 8.16754 3.81917e-014 -3.8147e-006 29.3076 1.6467 -5.47083 2.25675 -0.00419426 1.77636e-015 29.2574 2.85606 -5.05254 -2.17393 0.987137 -2.24349 -38.0502 -13.4038 173.604 9.47903 4.76837e-007 8.88179e-016 -89.8282 -1.05215e-005 -2.29054e-006 8.42616 -3.8147e-006 -2.13163e-014 -5.01414 -14.9417 -6.88513 1.4015 3.97628 -1.33794 81.9393 -42.683 26.7947 2.94554 -3.55272e-015 7.10543e-015 -16.804 -0.00349939 0.0115918 2.52656 3.55272e-015 -7.10543e-015 -9.77235e-006 7.42704e-008 2.38815e-007 2.09729 6.9313 0.0278177 62.2194 0.00177244 0.000921031 3.0714 3.8147e-006 4.76837e-007 -63.8422 -0.00163086 0.00079934 3.37999 1.90735e-006 -4.76837e-007 -4.00505e-007 6.6711e-007 1.96054e-008 -1.75528 1.22414 2.48017 -50.3295 3.91622 -172.421 9.47902 2.23517e-007 1.90735e-006 -93.2424 4.55156e-007 9.29072e-006 8.42617 3.8147e-006 -4.44089e-014 -21.7351 -9.97299 5.65606 1.40151 3.97627 1.33795 73.0843 45.4845 -20.6259 2.94554 -3.8147e-006 1.90735e-006 -18.9195 0.00463046 -0.0135078 2.52656 3.8147e-006 -1.90735e-006 -179.96 -5.62295e-005 1.72338e-005 2.09729 6.93129 -0.0277882 51.2974 7.11965e-006 5.33561e-006 3.07141 3.8147e-006 1.90735e-006 -74.887 -0.00130906 0.000336322 3.38 -2.26498e-006 0 179.96 -5.10831e-005 -3.81226e-005 6.17413 -0.00460053 2.38418e-007 26.1644 -4.89386 -4.95588 6.15898 -2.02445 -2.78435 -177.437 11.9216 77.1906 3.43915 3.8147e-006 6.82121e-013 31.7502 56.3114 -75.0618 10.2529 4.76952e-013 3.8147e-006 -35.7599 -1.88757 0.49723 16.2051 -9.53675e-007 -7.10544e-015 16.4218 -10.7087 19.4538 2.25393 2.19924 0.19204 68.4626 0.484255 26.1348 2.17807 -1.9963 -0.2193 -70.898 -0.188608 -1.60238 3.30716 1.42802 0.173905 21.5211 1.19968 19.7573 3.93642 -0.76983 0.580941 -0.772647 0.544284 8.16872 6.15898 -2.02444 2.78458 -2.98335 5.56071 -100.693 3.43915 2.13163e-014 1.90735e-006 0.246769 -53.3903 -45.1142 10.2529 1.90735e-006 0 44.2299 0.921059 6.30744 16.2051 5.32907e-015 3.8147e-006 -28.5024 6.65326 17.2247 3.30714 -1.42803 0.173899 -21.59 -1.14534 24.7698 2.25391 -2.19925 0.192042 -68.4519 -0.451327 31.7779 2.17805 1.99629 -0.219298 71.0804 0.183056 -4.8014 3.93641 0.769828 0.58095 0.587565 -2.63831 11.8037 7.02407 -0.812294 2.65418e-007 47.138 -0.0254072 -0.0232557 1.54249 -7.6294e-006 2.38419e-007 -21.1412 5.74918 5.74107 2.10593 -0.356747 0.0332334 -86.0737 -0.102743 -174.457 3.42079 -0.773968 -2.25959 149.908 1.73337 179.381 3.4208 -0.773987 2.25975 -29.4226 0.0081314 -11.1068 6.74789 -7.6294e-006 -2.38419e-007 -1.77115e-008 8.95971e-008 2.01407e-007 
0.843783 56.387 0.282983 -7.56862 -84.948 15.1123 0 0 -3.8147e-006 -89.9965 -3.50835e-015 -90 -2.28978 -2.39918 -1.77636e-015 172.669 80.5028 63.7256 9.67406 2.66454e-015 3.8147e-006 3.33679 -0.496395 -5.85188 10.5192 -1.77636e-015 -3.8147e-006 22.2233 -1.87643 -20.4915 8.16754 6.03961e-014 -3.8147e-006 29.7855 1.43886 -7.31417 2.25675 -0.00419426 0 29.5341 2.95108 -4.96832 -2.16511 0.992799 -2.24945 -39.0856 -13.6703 173.389 9.47903 4.76837e-007 0 -88.8594 -5.32321e-007 -2.32489e-006 8.42616 -3.8147e-006 -1.77636e-014 -7.7951 -14.5458 -7.3105 1.4015 3.97628 -1.33794 81.3205 -42.9132 26.374 2.94554 3.55272e-015 1.42109e-014 -16.5539 -0.00295695 0.00995229 2.52656 0 -1.42109e-014 -9.77235e-006 7.42705e-008 2.38827e-007 2.09729 6.9313 0.0278177 61.7177 1.5783e-005 -4.26652e-006 3.0714 3.8147e-006 4.76837e-007 -63.5877 -0.00245099 0.00121572 3.37999 1.90735e-006 -4.76837e-007 -4.00505e-007 6.6711e-007 1.96054e-008 -1.75379 1.23795 2.47397 -51.1589 3.56109 -172.527 9.47902 2.23517e-007 1.90735e-006 -92.4965 -9.42355e-006 8.87048e-006 8.42617 3.8147e-006 -4.08562e-014 -24.117 -9.98975 4.88182 1.40151 3.97627 1.33795 73.3277 45.42 -20.7994 2.94554 -3.8147e-006 1.90735e-006 -18.6479 0.00582439 -0.0172573 2.52656 3.8147e-006 -1.90735e-006 -179.96 -5.62295e-005 1.72337e-005 2.09729 6.93129 -0.0277882 50.7965 -5.76405e-007 -8.18283e-007 3.07141 3.8147e-006 1.90735e-006 -74.6303 -0.00197349 0.000525213 3.38 -2.26498e-006 0 179.96 -5.1083e-005 -3.81226e-005 6.17413 -0.00460053 2.38418e-007 25.8024 -4.64131 -4.72313 6.15898 -2.02445 -2.78435 -177.38 12.1188 77.1315 3.43915 3.8147e-006 6.82121e-013 26.3023 54.1627 -74.192 10.2529 5.06262e-013 3.8147e-006 -35.0524 -2.00206 -0.00142796 16.2051 -9.53675e-007 0 16.026 -10.1615 17.3254 2.25393 2.19924 0.19204 68.4612 0.4846 26.2952 2.17807 -1.9963 -0.2193 -70.9024 -0.189866 -2.03467 3.30716 1.42802 0.173905 21.8168 1.10185 19.5531 3.93642 -0.76983 0.580941 -0.74074 0.538463 5.3338 6.15898 -2.02444 2.78458 -2.46363 4.46909 -100.867 3.43915 4.26326e-014 1.90735e-006 4.41773 -50.3763 -45.6409 10.2529 1.90735e-006 0 44.2067 1.65208 5.5342 16.2051 -1.77636e-015 3.8147e-006 -27.584 6.88188 14.3055 3.30714 -1.42803 0.173899 -21.8191 -1.09102 25.0539 2.25391 -2.19925 0.192042 -68.4126 -0.457466 32.2946 2.17805 1.99629 -0.219298 71.0826 0.182721 -5.44829 3.93641 0.769828 0.58095 0.586049 -2.63847 9.87291 7.02407 -0.812294 2.65669e-007 46.6806 -0.0207233 -0.021537 1.54249 -7.6294e-006 2.38419e-007 -20.912 5.16901 5.62974 2.10593 -0.356747 0.0332334 -86.1167 -0.101834 -174.471 3.42079 -0.773968 -2.25959 149.935 1.7488 179.024 3.4208 -0.773987 2.25975 -29.4195 0.0924097 -11.3045 6.74789 -7.6294e-006 -2.38419e-007 -1.77115e-008 8.95971e-008 2.01407e-007 
0.788353 56.6912 0.297995 -6.20147 -84.9678 16.2776 -3.55271e-015 -8.88178e-016 -3.8147e-006 -89.9965 -3.50835e-015 -90 -2.28978 -2.39918 8.88178e-016 173.176 80.7984 62.9443 9.67406 -1.77636e-015 3.8147e-006 2.12804 -0.788512 -3.80995 10.5192 -1.77636e-015 -3.8147e-006 22.042 -2.07169 -21.7388 8.16754 5.77316e-014 -3.8147e-006 30.2567 1.21403 -9.1724 2.25675 -0.00419426 0 29.832 3.05281 -4.87479 -2.15619 0.998518 -2.25548 -40.1953 -13.925 173.156 9.47903 4.76837e-007 0 -87.8746 -5.14268e-007 -2.33045e-006 8.42616 -3.8147e-006 -1.77636e-014 -10.6434 -14.1091 -7.7376 1.4015 3.97628 -1.33794 80.6739 -43.1454 25.9328 2.94554 3.55272e-015 -7.10543e-015 -16.3013 -0.0024234 0.00829088 2.52656 3.55272e-015 -1.42109e-014 -9.77235e-006 7.42684e-008 1.02567e-005 2.09729 6.9313 0.0278177 61.1908 7.75056e-006 -8.54306e-006 3.0714 3.8147e-006 4.76837e-007 -63.3306 -0.00327841 0.00164511 3.37999 1.90735e-006 -4.76837e-007 -4.00505e-007 6.6711e-007 1.96054e-008 -1.75227 1.25189 2.46771 -52.0536 3.19991 -172.645 9.47902 2.23517e-007 1.90735e-006 -91.7076 6.51654e-007 9.32015e-006 8.42617 3.8147e-006 -3.37508e-014 -26.5924 -9.97703 4.09327 1.40151 3.97627 1.33795 73.573 45.3543 -20.9739 2.94554 -3.8147e-006 1.90735e-006 -18.3736 0.00699908 -0.0210705 2.52656 3.8147e-006 -1.90735e-006 -179.96 -5.62294e-005 1.72337e-005 2.09729 6.93129 -0.0277882 50.269 7.03291e-006 5.51439e-006 3.07141 3.8147e-006 1.90735e-006 -74.3711 -0.0026538 0.000725091 3.38 -2.26498e-006 0 179.96 -5.1083e-005 -3.81226e-005 6.17413 -0.00460053 2.38419e-007 25.4074 -4.38324 -4.48851 6.15898 -2.02445 -2.78435 -177.312 12.3533 77.0635 3.43915 3.8147e-006 6.82121e-013 22.2931 52.487 -73.2958 10.2529 5.06262e-013 3.8147e-006 -34.7593 -2.15416 -0.70855 16.2051 -9.53675e-007 -7.10544e-015 15.3471 -9.21088 14.8142 2.25393 2.19924 0.19204 68.4677 0.485807 25.6119 2.17807 -1.9963 -0.2193 -70.9091 -0.191117 -2.55718 3.30716 1.42802 0.173905 22.335 0.95034 18.408 3.93642 -0.76983 0.580941 -0.711024 0.530623 2.47113 6.15898 -2.02444 2.78458 -1.94042 3.36875 -100.942 3.43915 9.9476e-014 1.90735e-006 7.05927 -48.1074 -46.0277 10.2529 1.90735e-006 -1.42109e-014 44.2195 2.34811 4.4161 16.2051 5.32907e-015 3.8147e-006 -26.2504 6.64332 11.567 3.30714 -1.42803 0.173899 -22.1907 -1.00623 24.3285 2.25391 -2.19925 0.192042 -68.4127 -0.449144 31.856 2.17805 1.99629 -0.219298 71.0849 0.182364 -6.10152 3.93641 0.769828 0.58095 0.581558 -2.65402 7.50184 7.02407 -0.812294 2.65928e-007 46.1963 -0.0260446 -0.0343263 1.54249 -7.6294e-006 2.38419e-007 -20.6706 4.56589 5.51614 2.10593 -0.356747 0.0332334 -86.1602 -0.10091 -174.486 3.42079 -0.773968 -2.25959 150.148 1.7392 178.483 3.4208 -0.773987 2.25975 -29.4161 0.177512 -11.5041 6.74789 -7.6294e-006 -2.38419e-007 -1.77115e-008 8.95971e-008 2.01407e-007 
0.731466 56.9917 0.311144 -4.77642 -84.9875 17.5187 0 0 -3.8147e-006 -89.9965 -3.50835e-015 -90 -2.28978 -2.39918 8.88178e-016 173.762 81.1474 61.9858 9.67406 -2.66454e-015 3.8147e-006 0.945067 -1.09186 -1.76427 10.5192 0 -3.8147e-006 21.766 -2.23396 -22.8612 8.16754 8.08242e-014 -3.8147e-006 30.2748 1.0397 -10.872 2.25675 -0.00419426 1.77636e-015 30.1343 3.15286 -4.76976 -2.14571 1.00457 -2.26261 -41.3387 -14.1552 172.915 9.47903 4.76837e-007 -1.77636e-015 -86.9214 -5.09948e-007 -2.33586e-006 8.42616 -3.8147e-006 -1.59872e-014 -13.4563 -13.6559 -8.15423 1.4015 3.97628 -1.33794 80.0351 -43.3697 25.495 2.94554 3.55272e-015 1.42109e-014 -16.0536 -0.00191451 0.00665743 2.52656 -7.10543e-015 -2.13163e-014 -9.77235e-006 7.42683e-008 1.02567e-005 2.09729 6.9313 0.0278177 60.6742 1.57497e-005 -3.99272e-006 3.0714 3.8147e-006 4.76837e-007 -63.0785 -0.00409451 0.0020777 3.37999 1.90735e-006 -4.76837e-007 -4.00505e-007 6.6711e-007 1.96054e-008 -1.75078 1.26556 2.46157 -52.9794 2.84765 -172.772 9.47902 2.23517e-007 1.90735e-006 -90.9201 -2.788e-007 9.31841e-006 8.42617 3.8147e-006 -2.84217e-014 -29.0632 -9.94226 3.32171 1.40151 3.97627 1.33795 73.8129 45.2893 -21.1446 2.94554 -3.8147e-006 1.90735e-006 -18.1047 0.00811422 -0.0248166 2.52656 3.8147e-006 -1.90735e-006 -179.96 -5.62293e-005 1.72336e-005 2.09729 6.93129 -0.0277882 49.7518 4.2287e-007 4.00179e-008 3.07141 3.8147e-006 1.90735e-006 -74.1169 -0.00333057 0.000930314 3.38 -2.26498e-006 0 179.96 -5.1083e-005 -3.81226e-005 6.17413 -0.00460053 2.38419e-007 24.9988 -4.12363 -4.25576 6.15898 -2.02445 -2.78435 -177.242 12.6021 76.998 3.43915 3.8147e-006 4.51195e-013 19.2901 51.1364 -72.3287 10.2529 5.11591e-013 3.8147e-006 -34.791 -2.34957 -1.63792 16.2051 -9.53675e-007 0 14.4662 -7.82477 11.8511 2.25393 2.19924 0.19204 68.5054 0.46608 24.167 2.17807 -1.9963 -0.2193 -70.9171 -0.192174 -3.06955 3.30716 1.42802 0.173905 23.0352 0.729725 16.5098 3.93642 -0.76983 0.580941 -0.684445 0.521361 -0.335938 6.15898 -2.02444 2.78458 -1.4343 2.30843 -100.912 3.43915 1.35003e-013 1.90735e-006 8.51316 -46.378 -46.2993 10.2529 1.90735e-006 -7.10543e-015 44.2714 3.07657 2.92984 16.2051 7.10543e-015 3.8147e-006 -24.5654 5.97502 8.83685 3.30714 -1.42803 0.173899 -22.6799 -0.900342 22.6376 2.25391 -2.19925 0.192042 -68.42 -0.452094 30.5675 2.17805 1.99629 -0.219298 71.0871 0.181988 -6.74208 3.93641 0.769828 0.58095 0.598003 -2.6873 4.36671 7.02407 -0.812294 2.6619e-007 45.7111 -0.0191732 -0.0184805 1.54249 -7.6294e-006 2.38419e-007 -20.4206 3.96374 5.39097 2.10593 -0.356747 0.0332334 -86.2028 -0.0999862 -174.5 3.42079 -0.773968 -2.25959 150.357 1.72784 177.953 3.4208 -0.773987 2.25975 -29.4125 0.260941 -11.6998 6.74789 -7.6294e-006 -2.38419e-007 -1.77115e-008 8.95971e-008 2.01407e-007 
